<?xml version="1.0" standalone="no"?>
<!DOCTYPE svg PUBLIC "-//W3C//DTD SVG 20010904//EN"
 "http://www.w3.org/TR/2001/REC-SVG-20010904/DTD/svg10.dtd">
<svg version="1.0" xmlns="http://www.w3.org/2000/svg"
 width="600.000000pt" height="601.000000pt" viewBox="0 0 600.000000 601.000000"
 preserveAspectRatio="xMidYMid meet">

<g transform="translate(0.000000,601.000000) scale(0.100000,-0.100000)"
fill="#ffffff" stroke="none">
<path d="M480 4929 c-25 -5 -74 -23 -110 -41 -73 -38 -116 -87 -152 -175 l-23
-58 0 -1640 c0 -1524 1 -1644 17 -1696 35 -112 114 -192 228 -232 l65 -22
2455 -3 c1765 -2 2477 0 2535 8 87 12 162 42 211 83 39 33 89 127 103 195 8
38 11 519 11 1648 0 1419 -2 1603 -16 1665 -27 119 -100 202 -221 251 l-58 23
-2500 1 c-1384 1 -2520 -2 -2545 -7z m4620 -373 c0 -5 -2091 -2060 -2100
-2064 -4 -2 -428 428 -941 955 -512 527 -966 993 -1008 1036 l-76 77 2063 0
c1134 0 2062 -2 2062 -4z m-2900 -1856 c0 -3 -39 -41 -87 -84 -49 -43 -329
-316 -624 -606 -342 -337 -551 -536 -580 -551 -40 -22 -56 -24 -191 -24 l-148
0 0 1450 0 1450 815 -815 c448 -448 815 -817 815 -820z m3240 175 l0 -1445
-117 1 c-212 1 -176 -20 -465 262 -139 136 -428 420 -643 631 l-390 385 805
805 c443 443 806 806 807 806 2 0 3 -650 3 -1445z m-2696 -668 c76 -73 124
-102 205 -122 79 -21 138 -14 222 26 49 23 93 61 215 180 l152 151 515 -499
515 -498 -774 -3 c-426 -1 -1124 -1 -1551 0 l-776 3 519 507 519 508 89 -98
c50 -53 117 -123 150 -155z"/>
<path d="M2910 4424 c-196 -40 -354 -132 -456 -267 -177 -234 -202 -530 -66
-792 54 -105 181 -228 292 -283 117 -58 218 -82 347 -82 155 0 304 37 410 102
32 19 32 20 18 49 -9 16 -18 29 -21 29 -3 0 -38 -15 -77 -34 -110 -53 -185
-69 -317 -70 -199 0 -341 55 -471 184 -132 131 -197 299 -186 484 15 267 170
477 425 574 61 24 80 26 212 26 138 0 149 -1 227 -31 103 -39 173 -86 250
-166 104 -108 153 -229 153 -378 0 -139 -42 -244 -116 -289 -48 -31 -113 -32
-151 -4 -50 38 -51 53 -5 315 23 132 40 244 37 248 -6 11 -172 34 -190 27 -8
-3 -15 -17 -15 -31 0 -14 -2 -25 -5 -25 -3 0 -25 15 -49 34 -121 92 -307 66
-425 -59 -123 -130 -154 -320 -78 -467 52 -99 138 -148 263 -148 76 0 139 18
197 58 40 28 46 30 58 16 7 -9 36 -27 63 -42 59 -30 193 -42 262 -23 89 24
166 100 207 204 29 74 35 249 12 337 -59 226 -258 419 -500 485 -59 16 -257
28 -305 19z m177 -524 c66 -40 86 -110 59 -202 -39 -137 -189 -197 -277 -112
-108 104 -8 332 146 334 23 0 54 -9 72 -20z"/>
</g>
</svg>
