<?xml version="1.0" standalone="no"?>
<!DOCTYPE svg PUBLIC "-//W3C//DTD SVG 20010904//EN"
 "http://www.w3.org/TR/2001/REC-SVG-20010904/DTD/svg10.dtd">
<svg version="1.0" xmlns="http://www.w3.org/2000/svg"
 width="600.000000pt" height="600.000000pt" viewBox="0 0 600.000000 600.000000"
 preserveAspectRatio="xMidYMid meet">

<g transform="translate(0.000000,600.000000) scale(0.100000,-0.100000)"
fill="#ffffff" stroke="none">
<path d="M2130 5368 c-114 -58 -119 -189 -10 -245 38 -20 60 -23 151 -23 1619
0 2958 -989 3183 -2350 13 -77 30 -309 34 -453 4 -124 209 -174 302 -73 23 26
25 36 28 149 11 398 -78 776 -283 1192 -346 704 -946 1225 -1795 1558 -439
173 -808 242 -1395 262 -163 5 -172 5 -215 -17z"/>
<path d="M975 4961 c-116 -26 -197 -66 -324 -161 -167 -127 -311 -314 -378
-492 -163 -434 -83 -859 258 -1373 124 -186 288 -407 426 -573 119 -144 452
-479 588 -591 496 -412 1281 -875 1760 -1038 245 -83 450 -122 685 -130 476
-16 884 126 1170 407 126 125 173 229 173 385 -1 167 -39 285 -110 344 -51 42
-89 56 -523 182 -206 60 -436 129 -510 152 -120 37 -146 42 -235 42 -93 0
-105 -2 -166 -32 -42 -21 -129 -86 -245 -184 -195 -165 -244 -195 -306 -185
-42 7 -312 139 -474 231 -486 280 -868 625 -1137 1030 -99 148 -131 215 -122
254 8 40 39 71 217 220 229 192 257 231 258 348 0 57 -12 92 -150 433 -172
425 -231 560 -265 612 -34 51 -95 84 -195 103 -98 19 -336 28 -395 16z"/>
<path d="M2430 4641 c-123 -65 -98 -230 39 -260 25 -5 120 -12 211 -15 479
-14 952 -184 1304 -467 122 -98 298 -288 380 -412 161 -242 235 -459 257 -757
14 -199 16 -206 50 -245 73 -83 238 -65 283 29 20 43 21 190 1 337 -87 655
-516 1214 -1180 1540 -367 179 -756 269 -1169 269 -118 0 -147 -3 -176 -19z"/>
<path d="M2705 3912 c-45 -21 -72 -56 -81 -102 -9 -42 2 -74 36 -114 37 -41
80 -52 235 -60 180 -9 342 -62 496 -161 151 -98 241 -195 305 -330 43 -89 63
-170 73 -290 6 -70 13 -104 28 -123 26 -37 99 -72 148 -72 57 0 126 37 148 80
16 30 18 51 13 145 -11 246 -110 467 -290 649 -241 244 -564 380 -936 392
-118 4 -140 3 -175 -14z"/>
</g>
</svg>
