<?xml version="1.0" standalone="no"?>
<!DOCTYPE svg PUBLIC "-//W3C//DTD SVG 20010904//EN"
 "http://www.w3.org/TR/2001/REC-SVG-20010904/DTD/svg10.dtd">
<svg version="1.0" xmlns="http://www.w3.org/2000/svg"
 width="601.000000pt" height="600.000000pt" viewBox="0 0 601.000000 600.000000"
 preserveAspectRatio="xMidYMid meet">

<g transform="translate(0.000000,600.000000) scale(0.100000,-0.100000)"
fill="#ffffff" stroke="none">
<path d="M2802 5509 c-90 -11 -197 -66 -269 -137 -103 -102 -112 -127 -220
-619 l-96 -438 -1 -150 c-1 -330 77 -439 384 -541 84 -28 88 -28 375 -32 282
-3 293 -2 387 22 127 32 251 92 306 145 87 85 127 231 120 434 -4 124 -49 358
-158 830 -47 202 -72 259 -145 336 -112 118 -243 162 -474 160 -80 -1 -174 -5
-209 -10z"/>
<path d="M1789 4035 c-36 -20 -53 -65 -47 -127 9 -91 65 -116 239 -106 103 6
132 21 149 74 19 56 7 114 -30 147 -30 27 -33 27 -158 27 -90 -1 -135 -5 -153
-15z"/>
<path d="M3924 4040 c-37 -15 -54 -50 -54 -112 0 -50 4 -62 29 -90 l29 -33
135 0 c130 0 136 1 161 24 57 54 56 156 -1 200 -23 19 -39 21 -152 20 -69 0
-136 -4 -147 -9z"/>
<path d="M1879 3689 c-15 -15 -19 -30 -17 -62 l3 -42 49 -3 c78 -5 96 3 96 42
0 74 -81 115 -131 65z"/>
<path d="M4023 3695 c-24 -17 -38 -64 -28 -95 6 -17 15 -20 75 -20 38 0 72 5
75 11 11 17 -5 79 -26 100 -23 23 -66 25 -96 4z"/>
<path d="M203 3490 c-42 -25 -56 -75 -51 -174 3 -70 6 -79 36 -109 l32 -32
2773 -3 c2624 -2 2774 -1 2807 15 49 25 60 54 60 161 0 94 0 94 -34 128 l-34
34 -2778 0 c-2737 0 -2779 0 -2811 -20z"/>
<path d="M462 3075 c-65 -28 -62 25 -62 -1130 0 -1126 -2 -1092 51 -1129 18
-12 47 -16 121 -16 94 0 99 1 130 29 l33 29 5 554 c3 304 9 561 14 571 24 49
-94 47 2247 47 l2181 0 34 -34 34 -34 0 -531 c0 -577 0 -581 55 -617 19 -13
47 -17 110 -17 97 0 134 12 158 52 16 27 17 112 17 1093 0 830 -3 1068 -13
1088 -7 14 -28 33 -47 42 -33 17 -174 18 -2535 18 -2144 -1 -2505 -3 -2533
-15z"/>
<path d="M2953 1958 c-6 -7 -13 -25 -17 -40 -3 -16 -11 -28 -16 -28 -5 0 -18
-12 -27 -27 -13 -20 -19 -55 -23 -132 l-5 -104 -540 -165 c-297 -90 -543 -169
-547 -176 -4 -6 -8 -23 -8 -38 0 -20 5 -28 18 -28 14 0 834 175 1076 230 27 6
53 7 58 2 4 -4 17 -57 27 -117 19 -100 30 -125 56 -125 26 0 36 24 55 125 11
60 24 113 28 117 5 5 31 4 58 -2 242 -55 1062 -230 1076 -230 23 0 25 52 3 70
-8 7 -255 85 -547 174 l-533 162 -5 105 c-4 77 -10 112 -23 132 -9 15 -22 27
-27 27 -5 0 -13 12 -16 28 -10 42 -23 52 -69 52 -23 0 -47 -6 -52 -12z"/>
<path d="M1703 1096 c-24 -21 -28 -32 -28 -76 0 -44 4 -55 28 -76 66 -57 167
-11 167 76 0 87 -101 133 -167 76z"/>
<path d="M2939 1091 c-62 -62 -20 -171 66 -171 20 0 45 5 56 10 22 12 49 61
49 89 0 88 -109 134 -171 72z"/>
<path d="M4185 1108 c-34 -19 -44 -41 -45 -91 0 -63 33 -97 95 -97 61 0 95 36
95 100 0 42 -4 52 -31 74 -33 28 -80 34 -114 14z"/>
</g>
</svg>
